<svg width="112" height="20" viewBox="0 0 112 20" fill="none" xmlns="http://www.w3.org/2000/svg">
<path d="M101.136 1.48359C101.522 0.821321 102.478 0.821321 102.864 1.48359L105.011 5.16962C105.152 5.41222 105.389 5.58425 105.664 5.64367L109.833 6.54646C110.582 6.70867 110.877 7.6186 110.367 8.1901L107.524 11.371C107.337 11.5803 107.247 11.8587 107.275 12.138L107.705 16.382C107.782 17.1445 107.008 17.7069 106.307 17.3978L102.403 15.6777C102.146 15.5645 101.854 15.5645 101.597 15.6777L97.6933 17.3978C96.9919 17.7069 96.2179 17.1445 96.2951 16.382L96.7248 12.138C96.7531 11.8587 96.6626 11.5803 96.4756 11.371L93.6334 8.1901C93.1227 7.6186 93.4184 6.70867 94.1674 6.54646L98.3365 5.64367C98.6109 5.58425 98.8477 5.41222 98.989 5.16962L101.136 1.48359Z" fill="#6EC1E4"/>
<path d="M78.1359 1.48359C78.5216 0.821321 79.4784 0.821321 79.8641 1.48359L82.011 5.16962C82.1523 5.41222 82.3891 5.58425 82.6635 5.64367L86.8326 6.54646C87.5816 6.70867 87.8773 7.6186 87.3666 8.1901L84.5244 11.371C84.3374 11.5803 84.2469 11.8587 84.2752 12.138L84.7049 16.382C84.7821 17.1445 84.0081 17.7069 83.3067 17.3978L79.4032 15.6777C79.1463 15.5645 78.8537 15.5645 78.5968 15.6777L74.6933 17.3978C73.9919 17.7069 73.2179 17.1445 73.2951 16.382L73.7248 12.138C73.7531 11.8587 73.6626 11.5803 73.4756 11.371L70.6334 8.1901C70.1227 7.6186 70.4184 6.70867 71.1674 6.54646L75.3365 5.64367C75.6109 5.58425 75.8477 5.41222 75.989 5.16962L78.1359 1.48359Z" fill="#6EC1E4"/>
<path d="M55.1359 1.48359C55.5216 0.821321 56.4784 0.821321 56.8641 1.48359L59.011 5.16962C59.1523 5.41222 59.3891 5.58425 59.6635 5.64367L63.8326 6.54646C64.5816 6.70867 64.8773 7.6186 64.3666 8.1901L61.5244 11.371C61.3374 11.5803 61.2469 11.8587 61.2752 12.138L61.7049 16.382C61.7821 17.1445 61.0081 17.7069 60.3067 17.3978L56.4032 15.6777C56.1463 15.5645 55.8537 15.5645 55.5968 15.6777L51.6933 17.3978C50.9919 17.7069 50.2179 17.1445 50.2951 16.382L50.7248 12.138C50.7531 11.8587 50.6626 11.5803 50.4756 11.371L47.6334 8.1901C47.1227 7.6186 47.4184 6.70867 48.1674 6.54646L52.3365 5.64367C52.6109 5.58425 52.8477 5.41222 52.989 5.16962L55.1359 1.48359Z" fill="#6EC1E4"/>
<path d="M32.1359 1.48359C32.5216 0.821321 33.4784 0.821321 33.8641 1.48359L36.011 5.16962C36.1523 5.41222 36.3891 5.58425 36.6635 5.64367L40.8326 6.54646C41.5816 6.70867 41.8773 7.6186 41.3666 8.1901L38.5244 11.371C38.3374 11.5803 38.2469 11.8587 38.2752 12.138L38.7049 16.382C38.7821 17.1445 38.0081 17.7069 37.3067 17.3978L33.4032 15.6777C33.1463 15.5645 32.8537 15.5645 32.5968 15.6777L28.6933 17.3978C27.9919 17.7069 27.2179 17.1445 27.2951 16.382L27.7248 12.138C27.7531 11.8587 27.6626 11.5803 27.4756 11.371L24.6334 8.1901C24.1227 7.6186 24.4184 6.70867 25.1674 6.54646L29.3365 5.64367C29.6109 5.58425 29.8477 5.41222 29.989 5.16962L32.1359 1.48359Z" fill="#6EC1E4"/>
<path d="M9.13589 1.48359C9.52162 0.821321 10.4784 0.821321 10.8641 1.48359L13.011 5.16962C13.1523 5.41222 13.3891 5.58425 13.6635 5.64367L17.8326 6.54646C18.5816 6.70867 18.8773 7.6186 18.3666 8.1901L15.5244 11.371C15.3374 11.5803 15.2469 11.8587 15.2752 12.138L15.7049 16.382C15.7821 17.1445 15.0081 17.7069 14.3067 17.3978L10.4032 15.6777C10.1463 15.5645 9.85366 15.5645 9.59675 15.6777L5.69326 17.3978C4.99192 17.7069 4.21789 17.1445 4.2951 16.382L4.7248 12.138C4.75308 11.8587 4.66264 11.5803 4.47558 11.371L1.63339 8.1901C1.12273 7.6186 1.41838 6.70867 2.16744 6.54646L6.3365 5.64367C6.61089 5.58425 6.84767 5.41222 6.98897 5.16962L9.13589 1.48359Z" fill="#6EC1E4"/>
</svg>
