<svg width="112" height="20" fill="none" xmlns="http://www.w3.org/2000/svg"><path d="M101.136 1.484a1 1 0 0 1 1.728 0l2.147 3.686a.999.999 0 0 0 .653.474l4.169.902a1 1 0 0 1 .534 1.644l-2.843 3.181c-.187.21-.277.488-.249.767l.43 4.244a1 1 0 0 1-1.398 1.016l-3.904-1.72a.999.999 0 0 0-.806 0l-3.904 1.72a1 1 0 0 1-1.398-1.016l.43-4.244a1 1 0 0 0-.25-.767l-2.842-3.18a1 1 0 0 1 .534-1.645l4.17-.902a1 1 0 0 0 .652-.474l2.147-3.686Zm-23 0a1 1 0 0 1 1.728 0l2.147 3.686a1 1 0 0 0 .653.474l4.169.902a1 1 0 0 1 .534 1.644l-2.843 3.181a1 1 0 0 0-.249.767l.43 4.244a1 1 0 0 1-1.398 1.016l-3.904-1.72a1 1 0 0 0-.806 0l-3.904 1.72a1 1 0 0 1-1.398-1.016l.43-4.244a1 1 0 0 0-.25-.767l-2.842-3.18a1 1 0 0 1 .534-1.645l4.17-.902a1 1 0 0 0 .652-.474l2.147-3.686Zm-23 0a1 1 0 0 1 1.728 0l2.147 3.686a1 1 0 0 0 .652.474l4.17.902a1 1 0 0 1 .534 1.644l-2.843 3.181a1 1 0 0 0-.249.767l.43 4.244a1 1 0 0 1-1.398 1.016l-3.904-1.72a1 1 0 0 0-.806 0l-3.904 1.72a1 1 0 0 1-1.398-1.016l.43-4.244a1 1 0 0 0-.25-.767l-2.842-3.18a1 1 0 0 1 .534-1.645l4.17-.902a1 1 0 0 0 .652-.474l2.147-3.686Zm-23 0a1 1 0 0 1 1.728 0l2.147 3.686a1 1 0 0 0 .652.474l4.17.902a1 1 0 0 1 .534 1.644l-2.843 3.181a1 1 0 0 0-.249.767l.43 4.244a1 1 0 0 1-1.398 1.016l-3.904-1.72a1 1 0 0 0-.806 0l-3.904 1.72a1 1 0 0 1-1.398-1.016l.43-4.244a1 1 0 0 0-.25-.767l-2.842-3.18a1 1 0 0 1 .534-1.645l4.17-.902a1 1 0 0 0 .652-.474l2.147-3.686Zm-23 0a1 1 0 0 1 1.728 0l2.147 3.686a1 1 0 0 0 .653.474l4.169.902a1 1 0 0 1 .534 1.644l-2.843 3.181a1 1 0 0 0-.249.767l.43 4.244a1 1 0 0 1-1.398 1.016l-3.904-1.72a1 1 0 0 0-.806 0l-3.904 1.72a1 1 0 0 1-1.398-1.016l.43-4.244a1 1 0 0 0-.25-.767l-2.842-3.18a1 1 0 0 1 .534-1.645l4.17-.902a1 1 0 0 0 .652-.474l2.147-3.686Z" fill="#6EC1E4"/></svg>